<svg width="32" height="32" viewBox="0 0 32 32" fill="none" xmlns="http://www.w3.org/2000/svg">
<path opacity="0.1" fill-rule="evenodd" clip-rule="evenodd" d="M0 16C0 7.16344 7.16344 0 16 0C24.8366 0 32 7.16344 32 16C32 24.8366 24.8366 32 16 32C7.16344 32 0 24.8366 0 16Z" fill="white"/>
<path d="M20.8 9.6C20.8 8.72 20.08 8 19.2 8C18.32 8 17.6 8.72 17.6 9.6H14.4C14.4 8.72 13.68 8 12.8 8C11.92 8 11.2 8.72 11.2 9.6C9.44 9.6 8 11.04 8 12.8V20.8C8 22.56 9.44 24 11.2 24H20.8C22.56 24 24 22.56 24 20.8V12.8C24 11.04 22.56 9.6 20.8 9.6ZM22.4 21.6C22.4 22.08 22.08 22.4 21.6 22.4H10.4C9.92 22.4 9.6 22.08 9.6 21.6V15.2C9.6 14.72 9.92 14.4 10.4 14.4H21.6C22.08 14.4 22.4 14.72 22.4 15.2V21.6Z" fill="white"/>
<path d="M16.8 16H15.2C14.32 16 13.6 16.72 13.6 17.6V19.2C13.6 20.08 14.32 20.8 15.2 20.8H16.8C17.68 20.8 18.4 20.08 18.4 19.2V17.6C18.4 16.72 17.68 16 16.8 16Z" fill="white"/>
</svg>
