<svg width="16" height="16" viewBox="0 0 16 16" fill="none" xmlns="http://www.w3.org/2000/svg">
<path fill-rule="evenodd" clip-rule="evenodd" d="M7.9975 0C3.581 0 0 3.67234 0 8.20251C0 11.8261 2.291 14.9006 5.47 15.9856C5.87 16.0605 5.996 15.8174 5.996 15.6C5.996 15.4052 6 14.8606 5.996 14.1761C3.7715 14.6719 3.3105 13.0957 3.3105 13.0957C2.947 12.1481 2.423 11.8959 2.423 11.8959C1.697 11.3872 2.4775 11.397 2.4775 11.397C3.28 11.4549 3.703 12.2425 3.703 12.2425C4.4165 13.4951 5.5745 13.1331 6.03 12.9239C6.103 12.3938 6.31 12.0323 6.5385 11.8272C4.7625 11.62 2.8955 10.9165 2.8955 7.77334C2.8955 6.87756 3.207 6.14586 3.7185 5.5726C3.636 5.36545 3.361 4.5312 3.797 3.4016C3.797 3.4016 4.4685 3.18112 5.996 4.24303C6.634 4.061 7.3185 3.97025 7.9985 3.96717C8.678 3.97025 9.362 4.061 10.001 4.24303C11.5285 3.18163 12.199 3.4016 12.199 3.4016C12.635 4.5312 12.3605 5.36545 12.2785 5.5726C12.79 6.14586 13.1005 6.87756 13.1005 7.77334C13.1005 10.9247 11.2305 11.618 9.4485 11.8205C9.7355 12.0743 9.996 12.5666 9.996 13.3316C9.996 14.3571 9.996 15.3323 9.996 15.6021C9.996 15.8215 10.125 16.064 10.531 15.9846C13.707 14.898 15.996 11.8251 15.996 8.20251C15.996 3.67234 12.415 0 7.9975 0Z" fill="white"/>
</svg>
