<svg width="24" height="24" viewBox="0 0 24 24" fill="none" xmlns="http://www.w3.org/2000/svg">
<circle opacity="0.1" cx="12" cy="12" r="12" fill="white"/>
<path fill-rule="evenodd" clip-rule="evenodd" d="M11.9975 4C7.581 4 4 7.67234 4 12.2025C4 15.8261 6.291 18.9006 9.47 19.9856C9.87 20.0605 9.996 19.8174 9.996 19.6C9.996 19.4052 10 18.8606 9.996 18.1761C7.7715 18.6719 7.3105 17.0957 7.3105 17.0957C6.947 16.1481 6.423 15.8959 6.423 15.8959C5.697 15.3872 6.4775 15.397 6.4775 15.397C7.28 15.4549 7.703 16.2425 7.703 16.2425C8.4165 17.4951 9.5745 17.1331 10.03 16.9239C10.103 16.3938 10.31 16.0323 10.5385 15.8272C8.7625 15.62 6.8955 14.9165 6.8955 11.7733C6.8955 10.8776 7.207 10.1459 7.7185 9.5726C7.636 9.36545 7.361 8.5312 7.797 7.4016C7.797 7.4016 8.4685 7.18112 9.996 8.24303C10.634 8.061 11.3185 7.97025 11.9985 7.96717C12.678 7.97025 13.362 8.061 14.001 8.24303C15.5285 7.18163 16.199 7.4016 16.199 7.4016C16.635 8.5312 16.3605 9.36545 16.2785 9.5726C16.79 10.1459 17.1005 10.8776 17.1005 11.7733C17.1005 14.9247 15.2305 15.618 13.4485 15.8205C13.7355 16.0743 13.996 16.5666 13.996 17.3316C13.996 18.3571 13.996 19.3323 13.996 19.6021C13.996 19.8215 14.125 20.064 14.531 19.9846C17.707 18.898 19.996 15.8251 19.996 12.2025C19.996 7.67234 16.415 4 11.9975 4Z" fill="white"/>
</svg>
