<svg width="32" height="32" viewBox="0 0 32 32" fill="none" xmlns="http://www.w3.org/2000/svg">
<path opacity="0.1" fill-rule="evenodd" clip-rule="evenodd" d="M0 16C0 7.16344 7.16344 0 16 0C24.8366 0 32 7.16344 32 16C32 24.8366 24.8366 32 16 32C7.16344 32 0 24.8366 0 16Z" fill="white"/>
<path d="M15.9875 8C12.6611 8 10 10.6611 10 13.9875C10 18.1123 12.262 21.7713 15.6549 23.9002C15.8545 24.0333 16.1206 24.0333 16.3867 23.9002C19.7131 21.7048 21.9751 18.1123 21.9751 13.9875C21.9751 10.6611 19.3139 8 15.9875 8ZM15.9875 16.6486C14.5239 16.6486 13.3264 15.4511 13.3264 13.9875C13.3264 12.5239 14.5239 11.3264 15.9875 11.3264C17.4511 11.3264 18.6487 12.5239 18.6487 13.9875C18.6487 15.4511 17.4511 16.6486 15.9875 16.6486Z" fill="white"/>
</svg>
