<svg width="32" height="32" viewBox="0 0 32 32" fill="none" xmlns="http://www.w3.org/2000/svg">
<path opacity="0.1" fill-rule="evenodd" clip-rule="evenodd" d="M0 16C0 7.16344 7.16344 0 16 0C24.8366 0 32 7.16344 32 16C32 24.8366 24.8366 32 16 32C7.16344 32 0 24.8366 0 16Z" fill="white"/>
<path d="M20.8 12H20V11.2C20 9.44 18.56 8 16.8 8H15.2C13.44 8 12 9.44 12 11.2V12H11.2C9.44 12 8 13.44 8 15.2V20.8C8 22.56 9.44 24 11.2 24H20.8C22.56 24 24 22.56 24 20.8V15.2C24 13.44 22.56 12 20.8 12ZM14.4 11.2C14.4 10.72 14.72 10.4 15.2 10.4H16.8C17.28 10.4 17.6 10.72 17.6 11.2V12H14.4V11.2ZM16.8 21.6H15.2C14.72 21.6 14.4 21.28 14.4 20.8C14.4 20.32 14.72 20 15.2 20H16.8C17.28 20 17.6 20.32 17.6 20.8C17.6 21.28 17.28 21.6 16.8 21.6Z" fill="white"/>
</svg>
