<svg width="132" height="132" viewBox="0 0 132 132" fill="none" xmlns="http://www.w3.org/2000/svg">
<rect width="132" height="132" rx="24" fill="url(#paint0_linear)"/>
<path d="M80.1439 116H66.8252H53.4908C53.4908 116 53.5283 108.091 53.4908 102.666C35.2471 106.594 30.1564 92.6656 30.1564 92.6656C26.8221 86 23.4908 82.6656 23.4908 82.6656C16.8252 78.7062 23.4908 79.3312 23.4908 79.3312C30.1564 79.3312 33.4908 85.9969 33.4908 85.9969C39.3408 95.9313 49.7502 94.3312 53.4908 92.6625C53.4908 89.3281 54.9502 84.2906 56.8252 82.6625C42.2658 81.0219 30.1439 72.6625 30.1439 55.9969C30.1439 39.3313 33.4908 35.9969 36.8252 32.6625C36.1502 31.0219 33.3596 24.95 36.9252 16C36.9252 16 43.4752 16 50.1408 26C53.4439 22.6969 63.4752 22.6656 66.8096 22.6656C70.1377 22.6656 80.1689 22.6969 83.4689 26C90.1408 16 96.7065 16 96.7065 16C100.269 24.95 97.4846 31.0219 96.8064 32.6656C100.141 36 103.472 39.3312 103.472 56C103.472 72.6688 91.3689 81.0281 76.8064 82.6656C78.6846 84.2937 80.1408 90.0281 80.1408 92.6656V116H80.1439Z" fill="white"/>
<defs>
<linearGradient id="paint0_linear" x1="66" y1="0" x2="66" y2="132" gradientUnits="userSpaceOnUse">
<stop stop-color="#8C30F5"/>
<stop offset="1" stop-color="#2EC5CE"/>
</linearGradient>
</defs>
</svg>
