<svg width="1440" height="751" viewBox="0 0 1440 751" fill="none" xmlns="http://www.w3.org/2000/svg">
<g clip-path="url(#clip0)">
<g opacity="0.12">
<path fill-rule="evenodd" clip-rule="evenodd" d="M216.373 60.5974C216.158 11.8269 130.129 -43.017 93.3814 -71.2922C20.7208 -127.217 -54.8505 -178.861 -129.721 -231.329C-204.592 -283.798 -279.664 -336.124 -351.058 -393.727C-397.414 -431.119 -451.883 -473.233 -483.322 -526.626C-550.295 -640.41 -339.132 -623.513 -284.435 -626.002C-145.286 -632.36 14.3198 -629.458 144.75 -688.711C222.613 -724.084 253.661 -783.408 236.937 -869.869C231.547 -897.988 215.592 -930.345 229.108 -957.739C243.54 -986.995 276.744 -1003.88 304.302 -1015.2C404.817 -1056.45 520.384 -1061.22 626.733 -1066.4C741.411 -1072.09 857.167 -1070.43 971.036 -1070.87C1019.32 -1071.05 1069.74 -1089.36 1115.72 -1104.24C1176 -1123.73 1235.56 -1145.64 1295.34 -1166.82C1426.85 -1213.3 1562.36 -1262.25 1701.5 -1274.06C1788.63 -1281.45 1883.86 -1271.45 1951.55 -1207.12C1985.54 -1174.82 2003.32 -1126.81 2022.97 -1084.15C2046.75 -1032.62 2069.6 -980.595 2094.92 -929.876C2176.48 -766.525 2292.94 -606.901 2481.96 -598.879C2510.56 -597.67 2538.64 -601.61 2567.1 -602.349C2585.23 -602.804 2601.36 -598.182 2608.1 -578.17C2625.03 -527.977 2571.79 -448.741 2549.96 -408.917C2502.16 -321.744 2448.26 -238.483 2397.77 -153.06C2364.36 -96.5664 2306.54 -19.3642 2305.93 49.2759C2305.39 110.435 2382.47 154.64 2424.44 184.764C2463.76 212.968 2535 252.437 2539.32 309.812C2541.4 337.632 2524.02 360.688 2505.87 378.58C2474.05 409.871 2437.4 431.945 2408.78 467.644C2361.84 526.215 2322.63 606.802 2329 685.725C2333.42 740.412 2362.99 776.226 2400.6 810.461C2416.4 824.854 2429.23 835.038 2430.07 858.406C2431.42 895.514 2417.64 934.783 2406.3 969.189C2365.71 1092.32 2308.06 1211.38 2243.93 1322.54C2211.89 1378.1 2177.27 1433.48 2134.78 1480.87C2106.95 1511.99 2069.42 1549.03 2026.97 1548.99C1977.83 1548.99 1925.82 1530.27 1878.05 1516.28C1788.83 1490.12 1700.69 1459.88 1612.89 1428.86C1409.86 1357.09 1208.74 1279.51 1009.52 1196.12C869.2 1137.28 725.901 1078.35 593.974 1000.12C568.246 984.762 543.961 966.85 521.448 946.631C497.394 925.396 467.546 915.895 437.28 908.812C249.429 864.849 43.6293 898.6 -145.003 919.764C-192.882 925.126 -240.76 930.517 -288.774 934.271C-330.05 937.5 -379.465 946.759 -419.582 932.849C-498.63 905.47 -429.527 804.558 -400.312 763.439C-297.452 618.664 -164.744 496.176 -41.7388 371.127C16.7455 311.576 75.6743 252.181 130.978 189.258C159.776 156.545 216.562 103.352 216.373 60.5974Z" stroke="white"/>
<path fill-rule="evenodd" clip-rule="evenodd" d="M251.82 52.3755C220.292 0.768957 164.978 -37.3745 119.062 -73.2716C52.9858 -124.949 -15.1667 -173.755 -82.2943 -223.968C-145.768 -271.452 -209.376 -319.476 -268.156 -373.4C-303.999 -406.283 -348.971 -445.606 -365.949 -494.242C-402.776 -599.658 -204.656 -583.665 -155.746 -586.423C-34.1533 -593.247 103.702 -594.811 216.193 -650.312C286.436 -684.973 315.293 -742.451 300.312 -822.249C295.134 -849.858 285.802 -873.429 297.615 -900.896C311.275 -932.684 342.695 -952.502 371.498 -966.491C461.726 -1010.32 568.377 -1019.63 666.183 -1027.38C767.225 -1035.39 872.501 -1041.03 970.294 -1035.17C1009.4 -1032.84 1054.41 -1046.08 1093.11 -1056.23C1152.66 -1071.87 1211.61 -1089.91 1270.86 -1106.68C1391.28 -1140.8 1514.83 -1173.67 1640.1 -1177.41C1730.54 -1180.11 1824.84 -1165.47 1900.09 -1108.87C1976.35 -1051.48 2010.18 -962.511 2052.47 -877.936C2125.5 -731.717 2224.14 -553.938 2393.11 -523.045C2418.73 -518.353 2443.35 -520.898 2468.95 -519.746C2482.11 -519.163 2497.09 -517.315 2503.77 -503.625C2521.09 -468.083 2473.61 -403.099 2457.63 -375.874C2413.48 -300.639 2363.85 -229.086 2317.58 -155.302C2280.83 -96.7148 2234.26 -31.6166 2220.04 37.8318C2202.8 122.108 2315.49 182.074 2355.12 241.415C2423.83 344.315 2293.66 402.945 2229.48 452.006C2155.79 508.333 2094.96 611.091 2161.02 698.239C2186.29 731.563 2217.39 751.424 2228.67 794.913C2246.33 862.925 2232.98 940.648 2218.66 1007.88C2197.08 1108.95 2162.94 1208.92 2116.52 1300.26C2083.27 1365.66 2028.1 1468.2 1947.31 1460.51C1892.93 1455.38 1837.64 1436.63 1784.69 1420.05C1705.39 1395.24 1627.1 1366.96 1549.23 1337.59C1369.46 1269.98 1191.67 1195.43 1017.38 1113.42C898.46 1057.45 566.732 828.72 541.772 820.56C467.349 796.249 382.731 800.528 306.002 804.296C203.935 809.3 102.381 822.266 0.907091 834.279C-47.3957 839.965 -95.941 846.917 -144.5 849.718C-179.062 851.708 -224.452 853.414 -254.725 832.217C-313.816 790.861 -247.983 696.235 -220.757 656.201C-137.353 533.468 -31.8475 427.184 67.0775 318.512C115.623 265.157 164.91 211.887 208.979 154.252C226.752 130.98 271.306 84.2493 251.82 52.3755Z" stroke="white"/>
<path fill-rule="evenodd" clip-rule="evenodd" d="M295.437 25.909C209.335 -77.3615 90.4975 -154.167 -12.0668 -240.416C-63.5445 -283.718 -115.346 -328.2 -159.745 -379.778C-182.841 -406.598 -211.681 -440.515 -216.13 -477.901C-228.022 -577.915 -49.455 -564.391 3.99114 -568.188C107.324 -575.554 224.059 -581.143 317.805 -632.181C375.08 -663.381 403.287 -714.59 392.581 -781.896C387.835 -811.759 380.447 -837.129 392.581 -866.452C404.878 -896.159 430.495 -917.12 456.436 -932.834C530.983 -978.027 623.624 -992.476 707.555 -1003.24C806.015 -1015.78 905.214 -1020.67 1004.35 -1017.89C1091.18 -1015.48 1177.6 -1042.52 1262.38 -1060.34C1374.69 -1083.93 1489.04 -1104.53 1603.96 -1101.42C1694.73 -1098.95 1786.21 -1079.51 1863.81 -1027.84C1942.65 -975.226 1990.06 -896.472 2032.8 -811.489C2097.41 -683.02 2177.93 -510.864 2319.68 -462.073C2340.29 -454.963 2359.5 -454.181 2380.77 -452.943C2391.1 -452.346 2404.43 -452.161 2409.55 -440.799C2421.88 -413.438 2376.32 -360.395 2363.6 -341.909C2323.02 -282.893 2279.03 -226.536 2237.43 -168.303C2198.6 -113.937 2156.3 -57.2818 2132.18 6.42676C2093.8 107.891 2216.52 167.22 2213.08 263.906C2210.94 323.932 2156.45 366.978 2113.31 396.756C2060.18 433.374 1983.7 457.449 1957.11 524.272C1937.3 574.045 1968.38 603.012 1992.31 640.782C2032.87 704.775 2035.63 791.521 2031.41 865.597C2025.72 965.696 2003.49 1067.27 1965.64 1159.28C1948.49 1200.99 1927.49 1244.38 1896.56 1276.77C1867.58 1307.13 1840.16 1314.91 1801.43 1308.7C1682.89 1289.64 1563.21 1236.53 1449.53 1189.09C1306.71 1129.48 1165.85 1063.66 1029.2 989.615C936.022 939.118 840.739 885.691 758.952 815.924C737.635 797.736 715.806 777.969 700.22 753.979C688.436 735.947 683.434 721.058 663.574 710.762C604.707 680.259 522.826 688.237 459.753 691.408C358.901 696.456 258.534 709.895 158.303 721.997C99.8139 729.107 -10.3681 751.476 -57.0729 697.821C-97.3867 651.49 -48.7404 572.495 -23.8915 531.681C38.9657 428.468 119.823 337.882 194.841 244.609C229.223 201.861 264.952 158.787 293.347 111.262C300.601 99.1455 312.223 83.0904 314.219 68.372C316.457 51.5063 306.008 38.6365 295.437 25.909Z" stroke="white"/>
<path fill-rule="evenodd" clip-rule="evenodd" d="M302.839 49.9504C223.278 -41.3597 127.427 -116.375 42.0141 -201.821C3.71697 -240.133 -34.9575 -280.323 -64.1388 -327.06C-79.8352 -352.193 -96.5027 -383.829 -92.174 -415.068C-79.7544 -504.727 67.1097 -496.629 126.443 -501.881C214.608 -509.594 315.892 -517.365 393.849 -565.709C444.916 -597.375 464.064 -644.14 454.531 -704.454C444.296 -769.15 467.18 -816.115 519.258 -852.206C584.552 -897.42 666.972 -915.85 742.784 -928.943C834.123 -944.642 926.618 -951.601 1019.14 -949.735C1109.13 -947.914 1196.31 -963.825 1285.7 -974.171C1404.22 -987.876 1526.54 -994.636 1643.72 -966.543C1745.75 -942.079 1837.91 -888.169 1906.99 -804.801C1979.15 -717.788 2014.87 -608.162 2073.46 -511.9C2110 -451.856 2160.96 -372.43 2229.25 -349.09C2252.03 -341.305 2293.53 -351.808 2275.34 -313.511C2264.95 -291.608 2245.49 -272.396 2230.11 -254.492C2205.28 -225.56 2179.61 -197.424 2154.36 -168.889C2100.52 -108.063 2042.88 -45.9424 2002.53 26.0839C1951.69 116.768 2027.26 186.56 2018.05 278.51C2013.1 327.993 1980.5 367.486 1946 398.511C1923.68 418.606 1899.26 436.011 1874.33 452.25C1848.29 469.214 1817.48 482.136 1794.77 504.067C1762.4 535.277 1776.46 572.222 1782.52 612.569C1793.2 683.474 1795.55 755.499 1789.51 827.011C1782.12 914.663 1764.79 1004.82 1728.29 1084.48C1714.09 1115.49 1696.1 1148.36 1669.39 1169.15C1642.67 1189.95 1615.04 1188.52 1584.43 1182.26C1493.64 1163.76 1403.03 1120.71 1316.9 1079.91C1209.11 1028.83 1103.42 971.746 1002.5 906.807C932.84 861.978 862.948 813.548 804.666 752.764C787.716 735.075 771.588 716.132 758.548 694.984C749.594 680.482 744.793 661.768 731.821 650.866C691.231 616.838 609.742 627 562.14 628.978C467.139 632.92 373.635 651.663 278.755 656.217C226.973 658.708 145.875 664.97 107.848 618.446C72.0856 574.713 104.476 505.832 125.85 463.692C167.855 380.835 224.289 307.016 274.871 229.995C295.665 198.301 318.455 165.141 331.926 128.95C343.901 96.7012 323.228 73.3614 302.839 49.9504Z" stroke="white"/>
<path fill-rule="evenodd" clip-rule="evenodd" d="M322.408 51.4434C259.08 -28.9068 182.736 -100.233 118.95 -181.891C81.6135 -229.711 17.3153 -310.104 46.1902 -377.522C77.8676 -451.605 188.287 -453.623 252.114 -459.592C328.081 -466.698 417.292 -476.404 482.304 -522.661C502.866 -537.285 520.382 -556.64 527.806 -582.135C535.756 -609.421 527.065 -633.296 525.933 -660.61C523.562 -717.909 555.98 -763.911 598.882 -795.503C659.515 -840.168 735.333 -861.286 806.948 -876.009C888.083 -892.615 970.564 -900.802 1053.21 -900.452C1132.2 -900.168 1210.35 -902.016 1289.41 -904.147C1392.81 -906.99 1497.67 -902.399 1597.97 -873.423C1696.77 -844.858 1786.6 -791.324 1857.17 -712.58C1926.01 -635.74 1972.45 -541.818 2013.13 -446.148C2036.21 -391.847 2075.2 -310.701 2130.26 -283.273C2154.74 -271.066 2178.77 -271.904 2152.73 -240.157C2119.95 -200.18 2075.77 -168.106 2037.8 -133.913C1983.03 -84.5721 1926.88 -34.2645 1880.91 24.3995C1851.55 61.8602 1838.47 98.2126 1840.49 146.715C1842.05 183.665 1849.14 220.23 1845.55 257.321C1837.16 344.379 1772.17 404.081 1714.72 459.675C1677.76 495.43 1644.01 522.702 1624.98 573.564C1602.48 633.677 1593.04 699.077 1578 761.493C1561.48 830.034 1542.4 901.331 1506.34 961.7C1474.25 1015.45 1435.21 1039.55 1376.79 1025.07C1285.67 1002.5 1195.85 946.907 1114.95 895.476C1032.61 843.15 951.686 784.316 883.453 712.393C846.615 673.554 821.472 627.95 788.758 586.226C747.608 533.843 654.516 553.682 599.191 558.116C507.352 565.477 218.375 620.56 245.04 442.152C256.17 367.686 300 298.96 332.055 233.248C345.341 205.976 364.568 173.248 367.573 141.997C370.847 107.962 341.447 75.6309 322.408 51.4434Z" stroke="white"/>
<path fill-rule="evenodd" clip-rule="evenodd" d="M355.844 58.2662C307.45 -14.5474 249.533 -83.337 208.008 -161.98C181.071 -212.911 154.618 -280.962 189.367 -334.85C228.589 -395.663 315.073 -409.839 378.62 -417.589C444.092 -425.565 522.252 -432.276 575.765 -478.387C592.789 -493.075 606.824 -512.882 609.437 -536.598C611.955 -559.348 604.844 -582.098 607.201 -605.26C612.481 -657.272 642.368 -700.127 680.903 -731.209C794.891 -823.161 964.546 -843.607 1102.08 -846.01C1170.92 -847.204 1241.76 -840.934 1311.05 -836.441C1400.95 -830.611 1490.99 -818.099 1576.74 -787.941C1759.04 -723.844 1881.23 -581.686 1966.57 -404.792C1993.42 -349.112 2013.98 -288.867 2056.07 -244.121C2077.77 -221.016 2073.03 -204.423 2050.84 -183.351C2016.16 -150.421 1973.85 -125.254 1935.36 -97.769C1880.61 -58.682 1824.69 -19.012 1776.26 27.81C1742.89 60.0862 1719.2 91.1824 1712 139.583C1706.87 174.091 1708.07 209.254 1704.99 243.976C1699.11 309.936 1679.01 375.398 1643.41 430.112C1615.12 473.479 1581.45 512.893 1546.65 550.472C1501.4 599.399 1463.14 649.107 1428.78 707.176C1383.23 784.042 1319.22 925.83 1211.93 888.307C1093.59 846.902 982.675 741.699 906.75 639.765C881.254 605.541 860.323 563.568 825.937 538.33C774.458 500.608 722.226 501.93 660.996 502.086C569.326 502.3 369.851 523.301 367.696 378.384C366.848 320.97 390.391 266.683 401.665 211.458C414.38 149.607 388.896 107.889 355.844 58.2662Z" stroke="white"/>
<path fill-rule="evenodd" clip-rule="evenodd" d="M391.889 64.7581C344.021 -30.1417 236.681 -186.082 318.321 -291.61C361.446 -347.379 437.722 -368.337 501.708 -380.826C553.201 -390.929 615.3 -394.722 654.207 -437.547C682.804 -469.034 670.109 -514.857 681.065 -554.272C694.663 -603.135 725.874 -643.118 764.228 -673.17C871.406 -757.157 1020.43 -782.932 1149.36 -788.417C1283.26 -794.1 1430.8 -767.516 1556.8 -716.379C1713.91 -652.596 1831.61 -531.822 1913.93 -378.88C1929.11 -350.647 1942.91 -321.675 1957.49 -293.102C1967.29 -273.934 1981.82 -255.392 1989.54 -235.23C2002.4 -201.612 1987.25 -174.132 1962.97 -152.223C1928.04 -120.679 1885.13 -98.2297 1845.3 -74.5581C1790.85 -42.1623 1735.17 -10.349 1684.52 27.6592C1650.48 53.2348 1614.84 80.7855 1602.66 125.159C1594.35 155.424 1592.62 187.479 1592.92 218.823C1593.56 286.03 1590.22 340.378 1560.49 401.93C1511.57 502.982 1436.35 593.847 1356.88 669.451C1294.51 728.787 1195.82 820.958 1104.95 781.288C1023.42 745.766 975.726 660.741 922.01 592C895.892 558.581 866.554 528.061 832.082 504.289C788.62 474.323 747.706 461.749 696.213 456.847C609.546 448.591 478.866 446.446 452.074 336.755C442.183 296.274 447.829 254.345 442.641 213.338C435.862 159.118 416.039 112.627 391.889 64.7581Z" stroke="white"/>
<path fill-rule="evenodd" clip-rule="evenodd" d="M441.663 68.2722C407.577 -35.5665 362.797 -166.432 445.125 -258.72C485.002 -303.428 541.095 -328.42 595.383 -347.097C634.264 -360.482 695.999 -364.422 719.837 -405.574C737.345 -435.858 739.769 -477.635 755.607 -510.081C777.37 -554.689 810.339 -591.431 849.018 -620.193C949.783 -695.142 1081.02 -724.103 1200.71 -732.396C1460.77 -750.39 1725.38 -607.078 1864.54 -371.293C1906.04 -301.01 1959.6 -226.203 1892.54 -154.398C1819.33 -76.0637 1709.05 -39.3645 1621.67 16.2959C1588.28 37.5473 1545.74 63.0945 1527.11 101.572C1515.91 124.701 1515.14 153.719 1514.63 179.18C1513.28 244.03 1508.18 302.35 1483.46 362.861C1445.3 456.373 1384.44 542.645 1315.47 613.312C1255.32 674.932 1169.55 747.349 1082.2 702.926C1015.22 668.787 972.745 596.328 920.706 542.915C862.795 483.428 791.175 443.343 712.524 423.756C636.014 404.752 552.098 391.936 511.776 311.198C497.945 283.503 483.494 247.643 478.309 216.989C469.938 166.448 457.683 116.711 441.663 68.2722Z" stroke="white"/>
<path fill-rule="evenodd" clip-rule="evenodd" d="M497.163 69.0037C481.394 -35.8513 479.641 -145.186 552.908 -227.827C587.102 -266.381 630.326 -293.772 674.036 -318.589C706.195 -336.849 739.405 -352.251 763.423 -382.187C785.675 -409.905 802.59 -442.088 824.074 -470.531C852.414 -508.224 886.323 -540.853 924.499 -567.166C1020.19 -632.997 1136.6 -663.787 1247.97 -674.467C1301.89 -679.658 1360.37 -682.36 1413.92 -668.209C1465.63 -654.557 1516.77 -632.969 1564.32 -607.797C1665.4 -554.338 1753.01 -476.049 1816.52 -377.067C1860.07 -309.174 1883.61 -243.158 1827.22 -174.283C1763.65 -96.648 1663.96 -53.8129 1581.8 -3.42624C1525.45 31.132 1462.29 65.0076 1451.76 138.447C1443.38 196.883 1436.57 252.347 1414.89 307.583C1382.61 389.058 1335.16 462.862 1275.33 524.617C1220.63 580.878 1151.42 628.619 1073.16 598.569C1011.16 574.72 963.06 521.29 908.892 483.091C848.523 440.426 782.198 416.904 712.354 397.989C649.587 380.924 590.485 354.699 549.916 299.022C541.613 287.645 532.893 275.258 526.491 262.53C518.323 246.289 518.957 230.19 517.353 211.987C513.175 163.946 504.293 116.461 497.163 69.0037Z" stroke="white"/>
<path fill-rule="evenodd" clip-rule="evenodd" d="M558.356 60.4336C559.704 -39.1631 582.404 -133.29 644.576 -210.908C671.156 -244.111 702.896 -271.46 732.143 -301.886C755.692 -326.415 777.947 -349.206 805.026 -369.419C869.259 -417.28 921.463 -479.215 989.724 -521.834C1080.85 -578.811 1185.23 -610.306 1288.8 -622.898C1339.37 -629.051 1391.62 -631.202 1442.78 -624.251C1486.73 -618.282 1528.81 -597.329 1567.85 -575.891C1644.37 -533.899 1718.67 -474.215 1768.36 -398.705C1877.89 -232.231 1661.93 -111.197 1551.08 -40.317C1500.1 -7.7116 1422.21 30.0503 1401.33 94.6343C1386.4 140.772 1377.31 187.693 1358.08 232.406C1306.45 352.486 1201.62 493.719 1061.93 474.916C1002.16 466.883 947.679 434.249 891.878 412.341C834.421 389.778 775.118 377.2 715.397 363.397C659.584 350.506 615.1 332.159 579.049 282.973C561.819 259.484 563.341 231.366 561.805 202.55C559.299 155.216 557.75 107.611 558.356 60.4336Z" stroke="white"/>
<path fill-rule="evenodd" clip-rule="evenodd" d="M614.079 47.6765C636.521 -102.656 719.869 -266.776 842.423 -354.081C986.584 -456.781 1142.76 -543.261 1315 -568.123C1394.86 -579.65 1482.33 -585.322 1557.68 -547.625C1615.03 -518.955 1681.64 -476.098 1713.2 -415.829C1790.41 -268.411 1618.67 -151.056 1520.82 -82.8549C1468.14 -46.139 1401.09 -10.3612 1361.38 43.2557C1338.35 74.3428 1326.59 115.465 1307.99 149.608C1251.63 253.075 1158.85 336.529 1043.28 351.454C989.848 358.348 936.022 349.819 882.992 343.039C828.707 336.102 773.749 332.335 719.802 322.655C676.738 314.923 625.988 301.831 610.127 253.203C590.126 191.925 604.921 109.069 614.079 47.6765Z" stroke="white"/>
<path fill-rule="evenodd" clip-rule="evenodd" d="M668.72 23.5268C701.45 -117.811 770.758 -255.677 887.271 -340.053C949.058 -384.795 1020.78 -415.68 1089.65 -446.195C1167.7 -480.779 1249.26 -507.624 1332.56 -520.94C1436.27 -537.527 1604.24 -552.479 1658.42 -427.786C1712.2 -304.018 1576.3 -194.476 1495.94 -132.051C1444.41 -92.0613 1389.27 -55.3577 1340.04 -11.6405C1313.34 12.0604 1292.78 39.4459 1270.19 67.244C1207.75 144.265 1118.74 205.239 1028.02 237.788C940.093 269.342 831.317 283.312 738.5 272.884C698.452 268.403 669.827 253.28 657.715 210.289C640.932 150.524 655.19 81.9112 668.72 23.5268Z" stroke="white"/>
<path fill-rule="evenodd" clip-rule="evenodd" d="M723.015 -14.5404C755.53 -138.983 825.662 -252.644 927.958 -327.333C1042.63 -411.059 1190.28 -457.584 1326 -481.242C1398.13 -493.808 1554.46 -527.88 1591.23 -430.369C1628 -332.858 1521.7 -236.763 1460.53 -183.864C1386.27 -119.758 1306.22 -57.8629 1226.26 -0.3451C1156.79 49.6642 1082.66 100.793 1007.41 139.412C964.968 161.32 920.758 179.208 875.302 192.864C841.643 202.894 798.842 217.854 763.554 210.388C674.546 191.532 707.465 44.9608 723.015 -14.5404Z" stroke="white"/>
<path fill-rule="evenodd" clip-rule="evenodd" d="M790.036 -51.8047C861.377 -287.14 1087.41 -402.882 1305.04 -443.225C1355.61 -452.59 1497.37 -486.353 1525.64 -414.464C1553.03 -344.762 1465.92 -262.102 1425.13 -222.938C1298.75 -101.583 1142.61 -11.6039 994.65 77.5368C948.467 105.36 865.173 165.74 807.885 137.888C745.684 107.591 775.257 -3.00677 790.036 -51.8047Z" stroke="white"/>
<path fill-rule="evenodd" clip-rule="evenodd" d="M863.111 -97.1006C925.153 -270.408 1105.61 -369.806 1271.51 -402.574C1312.15 -410.591 1415.36 -435.555 1446.13 -387.192C1474.62 -342.454 1406.64 -277.629 1381.22 -251.87C1324.6 -194.509 1257.51 -147.255 1191.23 -101.834C1129.94 -59.812 1067.99 -16.7377 1003.51 18.8023C969.544 37.5105 905.841 77.4291 867.244 48.5422C825.689 17.466 849.336 -58.6179 863.111 -97.1006Z" stroke="white"/>
<path fill-rule="evenodd" clip-rule="evenodd" d="M-1131.72 193.966C-1133.43 82.9364 -1189.34 -32.4543 -1161.72 -145.586C-1139.05 -238.501 -1024.9 -246.258 -956.419 -288.354C-902.001 -321.798 -871.118 -381.042 -841.689 -437.885C-815.247 -488.917 -791.496 -541.483 -763.641 -591.677C-745.61 -624.127 -714.646 -687.846 -675.542 -688.997C-638.106 -690.105 -603.778 -640.451 -582.033 -611.099C-553.68 -572.839 -528.543 -532.05 -501.011 -493.179C-454.613 -427.613 -398.944 -379.081 -335.2 -333.149C-262.661 -280.886 -188.924 -230.408 -113.989 -181.715C-58.8175 -145.757 -3.26913 -110.068 49.7629 -70.5581C83.0273 -45.7665 156.446 0.747817 156.783 46.4523C156.944 68.2604 137.365 92.4125 124.164 109.845C101.826 139.353 76.3664 166.332 50.826 192.729C3.25727 241.9 -46.3299 288.841 -95.3788 336.35C-159.041 398.009 -219.851 458.66 -275.817 528.658C-333.68 601.115 -388.959 675.958 -445.368 749.779C-483.571 799.788 -521.734 855.949 -576.838 886.637C-645.857 924.996 -702.509 884.548 -772.307 884.079C-832.35 883.667 -827.923 736.822 -835.553 695.99C-843.21 654.662 -860.084 616.189 -866.624 574.761C-874.778 523.046 -874.886 470.139 -876.891 417.871C-879.327 353.938 -880.296 293.075 -945.035 268.695C-981.879 254.843 -1021.74 251.931 -1059.87 243.634C-1084.58 238.249 -1131.18 229.043 -1131.72 193.966Z" stroke="white"/>
<path fill-rule="evenodd" clip-rule="evenodd" d="M-1102.2 174.215C-1108.49 81.1452 -1145.68 -37.9773 -1110.51 -134.049C-1080.47 -216.149 -986.527 -226.792 -923.266 -269.919C-871.043 -305.491 -847.796 -363.7 -821.691 -420.885C-800.748 -466.759 -780.438 -513.073 -756.665 -557.481C-739.145 -590.207 -712.393 -645.456 -675.965 -652.229C-643.217 -658.319 -608.096 -609.543 -589.713 -584.729C-562.894 -548.502 -539.957 -509.16 -516.264 -470.643C-474.634 -402.986 -432.007 -342.144 -371.078 -292.443C-309.879 -242.529 -242.926 -205.207 -175.259 -166.363C-122.322 -135.97 -69.6541 -104.696 -19.3584 -69.6077C18.1074 -43.4838 71.9744 -10.0464 89.117 36.5383C102.688 73.3906 33.8618 134.545 13.5656 156.13C-28.2127 200.51 -72.4842 242.171 -116.837 283.577C-170.906 334.031 -226.7 378.155 -274.449 435.71C-359.852 538.611 -431.239 666.755 -541.129 743.234C-607.409 789.363 -681.168 801.159 -754.886 794.258C-784.077 791.526 -791.085 748.029 -794.764 722.659C-800.883 680.514 -801.651 637.643 -806.354 595.327C-810.761 555.714 -820.545 518.079 -828.429 479.235C-836.408 439.879 -838.645 399.555 -844.521 359.928C-848.16 335.326 -851.758 306.698 -867.674 286.92C-884.143 266.445 -911.312 257.865 -935.059 251.349C-979.653 239.226 -1097.75 239.895 -1102.2 174.215Z" stroke="white"/>
</g>
</g>
<defs>
<clipPath id="clip0">
<rect width="2876" height="751" fill="white" transform="translate(-718)"/>
</clipPath>
</defs>
</svg>
