<svg width="148" height="148" viewBox="0 0 148 148" fill="none" xmlns="http://www.w3.org/2000/svg">
<g opacity="0.3">
<circle cx="82" cy="2" r="2" fill="#40A4FF"/>
<circle cx="98" cy="2" r="2" fill="#40A4FF"/>
<circle cx="114" cy="2" r="2" fill="#40A4FF"/>
<circle cx="130" cy="2" r="2" fill="#40A4FF"/>
<circle cx="146" cy="2" r="2" fill="#40A4FF"/>
<circle cx="82" cy="18" r="2" fill="#40A4FF"/>
<circle cx="98" cy="18" r="2" fill="#40A4FF"/>
<circle cx="114" cy="18" r="2" fill="#40A4FF"/>
<circle cx="130" cy="18" r="2" fill="#40A4FF"/>
<circle cx="146" cy="18" r="2" fill="#40A4FF"/>
<circle cx="82" cy="34" r="2" fill="#40A4FF"/>
<circle cx="98" cy="34" r="2" fill="#40A4FF"/>
<circle cx="114" cy="34" r="2" fill="#40A4FF"/>
<circle cx="130" cy="34" r="2" fill="#40A4FF"/>
<circle cx="146" cy="34" r="2" fill="#40A4FF"/>
<circle cx="82" cy="50" r="2" fill="#40A4FF"/>
<circle cx="98" cy="50" r="2" fill="#40A4FF"/>
<circle cx="114" cy="50" r="2" fill="#40A4FF"/>
<circle cx="130" cy="50" r="2" fill="#40A4FF"/>
<circle cx="146" cy="50" r="2" fill="#40A4FF"/>
<circle cx="82" cy="66" r="2" fill="#40A4FF"/>
<circle cx="98" cy="66" r="2" fill="#40A4FF"/>
<circle cx="114" cy="66" r="2" fill="#40A4FF"/>
<circle cx="130" cy="66" r="2" fill="#40A4FF"/>
<circle cx="146" cy="66" r="2" fill="#40A4FF"/>
</g>
<g opacity="0.3">
<circle cx="82" cy="82" r="2" fill="#40A4FF"/>
<circle cx="98" cy="82" r="2" fill="#40A4FF"/>
<circle cx="114" cy="82" r="2" fill="#40A4FF"/>
<circle cx="130" cy="82" r="2" fill="#40A4FF"/>
<circle cx="146" cy="82" r="2" fill="#40A4FF"/>
<circle cx="82" cy="98" r="2" fill="#40A4FF"/>
<circle cx="98" cy="98" r="2" fill="#40A4FF"/>
<circle cx="114" cy="98" r="2" fill="#40A4FF"/>
<circle cx="130" cy="98" r="2" fill="#40A4FF"/>
<circle cx="146" cy="98" r="2" fill="#40A4FF"/>
<circle cx="82" cy="114" r="2" fill="#40A4FF"/>
<circle cx="98" cy="114" r="2" fill="#40A4FF"/>
<circle cx="114" cy="114" r="2" fill="#40A4FF"/>
<circle cx="130" cy="114" r="2" fill="#40A4FF"/>
<circle cx="146" cy="114" r="2" fill="#40A4FF"/>
<circle cx="82" cy="130" r="2" fill="#40A4FF"/>
<circle cx="98" cy="130" r="2" fill="#40A4FF"/>
<circle cx="114" cy="130" r="2" fill="#40A4FF"/>
<circle cx="130" cy="130" r="2" fill="#40A4FF"/>
<circle cx="146" cy="130" r="2" fill="#40A4FF"/>
<circle cx="82" cy="146" r="2" fill="#40A4FF"/>
<circle cx="98" cy="146" r="2" fill="#40A4FF"/>
<circle cx="114" cy="146" r="2" fill="#40A4FF"/>
<circle cx="130" cy="146" r="2" fill="#40A4FF"/>
<circle cx="146" cy="146" r="2" fill="#40A4FF"/>
</g>
<g opacity="0.3">
<circle cx="2" cy="2" r="2" fill="#40A4FF"/>
<circle cx="18" cy="2" r="2" fill="#40A4FF"/>
<circle cx="34" cy="2" r="2" fill="#40A4FF"/>
<circle cx="50" cy="2" r="2" fill="#40A4FF"/>
<circle cx="66" cy="2" r="2" fill="#40A4FF"/>
<circle cx="2" cy="18" r="2" fill="#40A4FF"/>
<circle cx="18" cy="18" r="2" fill="#40A4FF"/>
<circle cx="34" cy="18" r="2" fill="#40A4FF"/>
<circle cx="50" cy="18" r="2" fill="#40A4FF"/>
<circle cx="66" cy="18" r="2" fill="#40A4FF"/>
<circle cx="2" cy="34" r="2" fill="#40A4FF"/>
<circle cx="18" cy="34" r="2" fill="#40A4FF"/>
<circle cx="34" cy="34" r="2" fill="#40A4FF"/>
<circle cx="50" cy="34" r="2" fill="#40A4FF"/>
<circle cx="66" cy="34" r="2" fill="#40A4FF"/>
<circle cx="2" cy="50" r="2" fill="#40A4FF"/>
<circle cx="18" cy="50" r="2" fill="#40A4FF"/>
<circle cx="34" cy="50" r="2" fill="#40A4FF"/>
<circle cx="50" cy="50" r="2" fill="#40A4FF"/>
<circle cx="66" cy="50" r="2" fill="#40A4FF"/>
<circle cx="2" cy="66" r="2" fill="#40A4FF"/>
<circle cx="18" cy="66" r="2" fill="#40A4FF"/>
<circle cx="34" cy="66" r="2" fill="#40A4FF"/>
<circle cx="50" cy="66" r="2" fill="#40A4FF"/>
<circle cx="66" cy="66" r="2" fill="#40A4FF"/>
</g>
<g opacity="0.3">
<circle cx="2" cy="82" r="2" fill="#40A4FF"/>
<circle cx="18" cy="82" r="2" fill="#40A4FF"/>
<circle cx="34" cy="82" r="2" fill="#40A4FF"/>
<circle cx="50" cy="82" r="2" fill="#40A4FF"/>
<circle cx="66" cy="82" r="2" fill="#40A4FF"/>
<circle cx="2" cy="98" r="2" fill="#40A4FF"/>
<circle cx="18" cy="98" r="2" fill="#40A4FF"/>
<circle cx="34" cy="98" r="2" fill="#40A4FF"/>
<circle cx="50" cy="98" r="2" fill="#40A4FF"/>
<circle cx="66" cy="98" r="2" fill="#40A4FF"/>
<circle cx="2" cy="114" r="2" fill="#40A4FF"/>
<circle cx="18" cy="114" r="2" fill="#40A4FF"/>
<circle cx="34" cy="114" r="2" fill="#40A4FF"/>
<circle cx="50" cy="114" r="2" fill="#40A4FF"/>
<circle cx="66" cy="114" r="2" fill="#40A4FF"/>
<circle cx="2" cy="130" r="2" fill="#40A4FF"/>
<circle cx="18" cy="130" r="2" fill="#40A4FF"/>
<circle cx="34" cy="130" r="2" fill="#40A4FF"/>
<circle cx="50" cy="130" r="2" fill="#40A4FF"/>
<circle cx="66" cy="130" r="2" fill="#40A4FF"/>
<circle cx="2" cy="146" r="2" fill="#40A4FF"/>
<circle cx="18" cy="146" r="2" fill="#40A4FF"/>
<circle cx="34" cy="146" r="2" fill="#40A4FF"/>
<circle cx="50" cy="146" r="2" fill="#40A4FF"/>
<circle cx="66" cy="146" r="2" fill="#40A4FF"/>
</g>
</svg>
